# xmcd
#
# Track frame offsets:
#	150
#	15608
#	29295
#	41111
#	56883
#
# Disc length: 866 seconds
# Revision: 0
# Processed by: cddbd v1.5.2PL0 Copyright (c) Steve Scherf et al.
# Submitted via: dBpowerAMP V12.0
#
DISCID=3d036005
DTITLE=Delta Maid - Broken Branches EP
DYEAR=2010
DGENRE=Country
TTITLE0=Broken Branches
TTITLE1=Stop Worryin' Baby
TTITLE2=Don't Ever Let Nobody Drag Your Spirit Down
TTITLE3=Any Way I Want To
TTITLE4=Slow Down
EXTD=
EXTT0=
EXTT1=
EXTT2=
EXTT3=
EXTT4=
PLAYORDER=
